<svg width="1280" height="720" xmlns="http://www.w3.org/2000/svg" xmlns:xlink="http://www.w3.org/1999/xlink" overflow="hidden"><g><rect x="0" y="0" width="1280" height="720" fill="#FFFFFF"/><text fill="#12342C" font-family="Lucida Fax,Lucida Fax_MSFontService,sans-serif" font-weight="600" font-size="25" transform="translate(542.649 234)">Experiência</text><text fill="#12342C" font-family="Lucida Fax,Lucida Fax_MSFontService,sans-serif" font-weight="600" font-size="25" transform="translate(607.249 263)">do</text><text fill="#12342C" font-family="Lucida Fax,Lucida Fax_MSFontService,sans-serif" font-weight="600" font-size="25" transform="translate(570.016 293)">Usuário</text><path d="M492.081 243.358C495.87 168.01 558.12 109.905 631.122 113.575 700.487 117.063 755.27 175.301 756.597 246.962L735.429 247.449C734.301 183.721 683.615 133.204 622.22 134.615 563.864 135.956 516.271 183.905 513.228 244.421Z" fill="#126E51" fill-rule="evenodd"/><path d="M756.443 260.632C752.768 333.78 690.609 390.105 617.608 386.437 548.35 382.958 493.527 326.503 491.948 257.038L513.116 256.55C514.511 318.08 565.404 366.814 626.789 365.401 685.026 364.061 732.367 317.888 735.297 259.57Z" fill="#FA8648" fill-rule="evenodd"/><path d="M0.565055-0.825053 175.691 119.114 174.561 120.764-0.565055 0.825053ZM176.287 115.885 180.627 123.706 171.766 122.486Z" fill="#F97D48" transform="matrix(-1 0 0 1 491.627 263)"/><path d="M36 392.667C36 388.985 38.9849 386 42.6669 386L304.333 386C308.015 386 311 388.985 311 392.667L311 419.333C311 423.015 308.015 426 304.333 426L42.6669 426C38.9849 426 36 423.015 36 419.333Z" stroke="#F87548" stroke-width="2" stroke-miterlimit="8" fill="#FA8648" fill-rule="evenodd"/><text fill="#FFFFFF" font-family="Lucida Fax,Lucida Fax_MSFontService,sans-serif" font-weight="400" font-size="17" transform="translate(73.2492 413)">Abondono de chamada</text><path d="M36 513.667C36 508.328 40.328 504 45.6668 504L301.333 504C306.672 504 311 508.328 311 513.667L311 552.333C311 557.672 306.672 562 301.333 562L45.6668 562C40.328 562 36 557.672 36 552.333Z" stroke="#F87548" stroke-width="2" stroke-miterlimit="8" fill="#FA8648" fill-rule="evenodd"/><text fill="#FFFFFF" font-family="Lucida Fax,Lucida Fax_MSFontService,sans-serif" font-weight="400" font-size="18" transform="translate(80.1692 529)">Chatbot com poucas</text><text fill="#FFFFFF" font-family="Lucida Fax,Lucida Fax_MSFontService,sans-serif" font-weight="400" font-size="18" transform="translate(66.9159 550)">opções de atendimento</text><path d="M175 426 175 496.968 173 496.968 173 426ZM178 495.635 174 503.635 170 495.635Z" fill="#F97D48"/><path d="M937 392.667C937 388.985 939.985 386 943.667 386L1206.33 386C1210.02 386 1213 388.985 1213 392.667L1213 419.333C1213 423.015 1210.02 426 1206.33 426L943.667 426C939.985 426 937 423.015 937 419.333Z" stroke="#F87548" stroke-width="2" stroke-miterlimit="8" fill="#FA8648" fill-rule="evenodd"/><text fill="#FFFFFF" font-family="Lucida Fax,Lucida Fax_MSFontService,sans-serif" font-weight="400" font-size="17" transform="translate(971.275 413)">Atendimento Monótono</text><path d="M937 513.667C937 508.328 941.328 504 946.667 504L1203.33 504C1208.67 504 1213 508.328 1213 513.667L1213 552.333C1213 557.672 1208.67 562 1203.33 562L946.667 562C941.328 562 937 557.672 937 552.333Z" stroke="#F87548" stroke-width="2" stroke-miterlimit="8" fill="#FA8648" fill-rule="evenodd"/><text fill="#FFFFFF" font-family="Lucida Fax,Lucida Fax_MSFontService,sans-serif" font-weight="400" font-size="17" transform="translate(956.858 529)">Dificuldades para localizar</text><text fill="#FFFFFF" font-family="Lucida Fax,Lucida Fax_MSFontService,sans-serif" font-weight="400" font-size="17" transform="translate(997.105 550)">postos de recarga</text><path d="M1076 426 1076 496.968 1074 496.968 1074 426ZM1079 495.635 1075 503.635 1071 495.635Z" fill="#F97D48"/><path d="M757.558 263.17 932.65 380.769 931.535 382.43 756.442 264.83ZM933.216 377.535 937.627 385.316 928.755 384.176Z" fill="#F97D48"/><path d="M487 513.667C487 508.328 491.328 504 496.667 504L753.333 504C758.672 504 763 508.328 763 513.667L763 552.333C763 557.672 758.672 562 753.333 562L496.667 562C491.328 562 487 557.672 487 552.333Z" stroke="#F87548" stroke-width="2" stroke-miterlimit="8" fill="#FA8648" fill-rule="evenodd"/><text fill="#FFFFFF" font-family="Lucida Fax,Lucida Fax_MSFontService,sans-serif" font-weight="400" font-size="18" transform="translate(565.892 529)">Atendimento</text><text fill="#FFFFFF" font-family="Lucida Fax,Lucida Fax_MSFontService,sans-serif" font-weight="400" font-size="18" transform="translate(551.146 550)">Descentralizado</text><path d="M626 385 626 497.177 624 497.177 624 385ZM629 495.844 625 503.844 621 495.844Z" fill="#F97D48"/></g></svg>